<?xml version="1.0" encoding="UTF-8"?>
<svg id="Layer_1" xmlns="http://www.w3.org/2000/svg" version="1.1" viewBox="0 0 500 526.62">
  <!-- Generator: Adobe Illustrator 29.8.2, SVG Export Plug-In . SVG Version: 2.1.1 Build 3)  -->
  <defs>
    <style>
      .st0, .st1, .st2, .st3, .st4 {
        stroke-miterlimit: 10;
      }

      .st0, .st1, .st3 {
        fill: #333;
      }

      .st0, .st1, .st4 {
        stroke: #333;
      }

      .st1 {
        stroke-linecap: round;
      }

      .st2 {
        fill: #fff;
        stroke: #fff;
      }

      .st3 {
        stroke: #000;
      }

      .st5, .st4 {
        fill: #f2f2f2;
      }

      .st6 {
        font-family: GloucesterMT-ExtraCondensed, 'Gloucester MT Extra Condensed';
        font-size: 36px;
      }

      .st7 {
        font-family: BernardMT-Condensed, 'Bernard MT Condensed';
        font-size: 48px;
      }
    </style>
  </defs>
  <g>
    <path class="st5" d="M372.04,224.5c-31.01,0-61.31-10.14-85.31-28.54-7.39-5.67-14.08-12.02-19.92-18.91,19.17,8.84,48.04,18.9,80.21,18.9,28.57,0,54.76-7.9,77.83-23.49,19.09-12.9,32.22-35.9,36.03-63.12,5.16-36.82-6.81-76.03-32.86-107.93,8.47,4.06,16.51,9,23.92,14.68,27.57,21.14,44.31,50.64,47.14,83.07,2.68,30.75-7.67,60.57-29.14,83.96-24.14,26.3-59.82,41.38-97.91,41.38Z"/>
    <path d="M429.83,2.84c7.7,3.85,15.02,8.43,21.81,13.64,13.85,10.62,24.99,23.39,33.09,37.94,7.83,14.05,12.49,29.12,13.85,44.78,2.67,30.61-7.63,60.29-29.01,83.58-24.04,26.2-59.6,41.22-97.54,41.22-30.9,0-61.09-10.1-85.01-28.44-6.74-5.17-12.9-10.91-18.35-17.12,19.19,8.62,47.23,18,78.34,18,28.67,0,54.96-7.93,78.11-23.58,19.21-12.98,32.42-36.11,36.25-63.47,5.08-36.28-6.4-74.88-31.55-106.56M426.22,0c52.32,62.31,42.08,142.5-1.65,172.04-25.11,16.96-51.81,23.41-77.55,23.41-29.98,0-58.67-8.74-82.02-19.8,6.1,7.48,13.24,14.44,21.42,20.71,25.08,19.23,55.52,28.64,85.61,28.64,36.81,0,73.08-14.1,98.28-41.54,45.8-49.9,37.7-125.01-18.06-167.77-8.18-6.27-16.91-11.49-26.03-15.69h0Z"/>
  </g>
  <g>
    <path class="st5" d="M136.09,224.5c-38.82,0-76.09-15.93-102.24-43.69C10.1,155.59-1.63,123.98.81,91.79,3.1,61.61,17.84,34.45,42.31,15.31c6.99-5.47,14.64-10.17,22.77-14-21.23,27.55-49.74,81.18-14.27,141.67,18.23,31.09,63.39,51.98,112.38,51.98,24.2,0,48.41-5.18,70.15-15-5.37,6.71-11.6,12.87-18.57,18.32-21.61,16.9-49.55,26.21-78.67,26.21Z"/>
    <path d="M63.42,2.67c-21.15,28.11-47.96,81.01-13.04,140.57,18.32,31.24,63.65,52.23,112.81,52.23,23.56,0,47.13-4.9,68.44-14.19-5.04,6.05-10.8,11.63-17.17,16.62-21.52,16.84-49.35,26.11-78.36,26.11-38.69,0-75.82-15.87-101.88-43.54-11.93-12.67-20.84-26.99-26.48-42.56C2.29,122.86.13,107.36,1.31,91.83,3.59,61.79,18.26,34.76,42.62,15.71c6.43-5.03,13.41-9.4,20.81-13.04M66.74,0c-8.74,3.93-17.04,8.9-24.74,14.92C-10.49,55.97-14.3,130.41,33.49,181.15c27.19,28.87,65.21,43.85,102.6,43.85,28.35,0,56.35-8.61,78.98-26.32,7.7-6.02,14.34-12.75,19.93-20.03-23.52,10.98-48.23,15.81-71.81,15.81-49.58,0-94.13-21.35-111.94-51.73C18.57,87.01,39.51,34.5,66.74,0h0Z"/>
  </g>
  <path class="st3" d="M102.5,242.03c0-82.84,67.16-150,150-150s150,67.16,150,150"/>
  <path class="st3" d="M402.5,247.5v40H102.5v-40h300Z"/>
  <rect class="st2" x="222.5" y="92.03" width="60" height="150"/>
  <circle class="st0" cx="235" cy="205.5" r="5"/>
  <circle class="st0" cx="272.5" cy="205.5" r="5"/>
  <circle class="st0" cx="234.5" cy="159.5" r="5"/>
  <circle class="st0" cx="272.5" cy="159.5" r="5"/>
  <circle class="st0" cx="234.5" cy="112.5" r="5"/>
  <circle class="st0" cx="272.5" cy="112.5" r="5"/>
  <circle class="st4" cx="252.5" cy="267.5" r="12.5"/>
  <circle class="st4" cx="352.5" cy="267.5" r="12.5"/>
  <circle class="st4" cx="152.5" cy="267.5" r="12.5"/>
  <polygon class="st1" points="282.5 387.54 222.5 387.54 252.5 417.54 282.5 387.54"/>
  <path class="st0" d="M282.5,387.54l-60-.04c4.82-26.42,6.49-63.22,0-100l60,.04c-6.67,29.55-6.67,70.4,0,100Z"/>
  <text class="st7" transform="translate(44.82 472.45)"><tspan x="0" y="0">VIKING TATOVERING AS</tspan></text>
  <text class="st7" transform="translate(90.04 349.92)"><tspan x="0" y="0">Estd</tspan></text>
  <text class="st7" transform="translate(317.77 351.15)"><tspan x="0" y="0">2025</tspan></text>
  <text class="st6" transform="translate(113.36 517.16)"><tspan x="0" y="0">Åpen hver dag fra kl. 11-20</tspan></text>
</svg>